<?xml version="1.0" encoding="UTF-8"?>
<svg id="Layer_1" data-name="Layer 1" xmlns="http://www.w3.org/2000/svg" xmlns:xlink="http://www.w3.org/1999/xlink" viewBox="0 0 24 24">
  <defs>
    <style>
      .cls-1 {
        fill: #253c97;
      }

      .cls-2, .cls-3, .cls-4, .cls-5 {
        fill: none;
      }

      .cls-6 {
        clip-path: url(#clippath-1);
      }

      .cls-3 {
        stroke: #253c97;
      }

      .cls-3, .cls-5 {
        stroke-miterlimit: 10;
      }

      .cls-4 {
        stroke-linejoin: round;
        stroke-width: 2px;
      }

      .cls-4, .cls-5 {
        stroke: #000;
        stroke-linecap: round;
      }

      .cls-7 {
        clip-path: url(#clippath);
      }
    </style>
    <clipPath id="clippath">
      <path class="cls-2" d="M-2-2v25.25h25.25V-2H-2ZM8.14,10.22c-.46-.44-.91-.88-1.37-1.32l-.13-.12c.96-.65,2.06-1,3.21-1.02.51.53,1.01,1.06,1.53,1.59l.12.71c-1.07-.43-2.29-.39-3.35.16Z"/>
    </clipPath>
    <clipPath id="clippath-1">
      <path class="cls-2" d="M10.13,15.83v10.04h15.74v-10.04h-15.74ZM20.83,20.83c-.28.28-.65.42-1.09.42-.23,0-.47-.04-.73-.12-.12-.04-.25-.09-.37-.14-.11-.28-.23-.57-.35-.82l.07-.48c.31.23.64.4.94.49.37.11.68.09.83-.05.14-.14.16-.45.05-.83-.07-.24-.19-.5-.36-.75l.09-.03,1.18.55c.04.08.07.16.1.25.11.62,0,1.15-.36,1.51Z"/>
    </clipPath>
  </defs>
  <g>
    <g>
      <ellipse class="cls-3" cx="18.52" cy="18.52" rx="1.5" ry="2.78" transform="translate(-7.67 18.52) rotate(-45)"/>
      <path class="cls-1" d="M0,0c4.92,3.42,8.62,8.25,12.97,12.33.79.71,2.39,2.54,3.42,2.9.47.24.93.48,1.49.61l-2.05,2.05c-.31-1.03-.77-1.99-1.44-2.78,0,0-2.08-2.14-2.08-2.14C8.25,8.62,3.42,4.92,0,0h0Z"/>
    </g>
    <path class="cls-5" d="M12.63,18.34c1.04,3.94,1.89,5.05,2.54,5.03,1.39-.03,1.95-5.04,3.34-5.04,1.4,0,2.04,5.08,3.15,5.04.46-.02,1.08-.91,1.71-5.04"/>
  </g>
  <path class="cls-4" d="M10,12.76c1.65,2.21,4.79,2.66,7,1.01.19-.14.37-.3.54-.47l3-3c1.92-1.99,1.86-5.15-.12-7.07-1.94-1.87-5.01-1.87-6.95,0l-1.72,1.71"/>
  <path class="cls-4" d="M14,10.76c-1.65-2.21-4.79-2.66-7-1.01-.19.14-.37.3-.54.47l-3,3c-1.92,1.99-1.86,5.15.12,7.07,1.94,1.87,5.01,1.87,6.95,0l1.71-1.71"/>
  <g class="cls-7">
    <g>
      <ellipse class="cls-3" cx="18.52" cy="18.52" rx="1.5" ry="2.78" transform="translate(-7.67 18.52) rotate(-45)"/>
      <path class="cls-1" d="M0,0c4.92,3.42,8.62,8.25,12.97,12.33.79.71,2.39,2.54,3.42,2.9.47.24.93.48,1.49.61l-2.05,2.05c-.31-1.03-.77-1.99-1.44-2.78,0,0-2.08-2.14-2.08-2.14C8.25,8.62,3.42,4.92,0,0h0Z"/>
    </g>
  </g>
  <g class="cls-6">
    <path class="cls-5" d="M12.63,18.34c1.04,3.94,1.89,5.05,2.54,5.03,1.39-.03,1.95-5.04,3.34-5.04,1.4,0,2.04,5.08,3.15,5.04.46-.02,1.08-.91,1.71-5.04"/>
  </g>
</svg>